<?xml version="1.0" encoding="utf-8"?>
<!-- Generator: Adobe Illustrator 28.0.0, SVG Export Plug-In . SVG Version: 6.00 Build 0)  -->
<svg version="1.1" id="Layer_1" xmlns="http://www.w3.org/2000/svg" xmlns:xlink="http://www.w3.org/1999/xlink" x="0px" y="0px"
	 viewBox="0 0 128 128" style="enable-background:new 0 0 128 128;" xml:space="preserve">
<style type="text/css">
	.st0{fill:#5CC1D6;}
	.st1{fill:#681E5B;}
	.st2{fill:#E61789;}
</style>
<g>
	<g>
		<path class="st0" d="M61.6,72.2C60.9,84,57,94.9,51,105.1c-0.2,0.3-0.4,0.6-0.7,0.8c-2.2,1.7-3.8,3.8-4.8,6.4
			c-0.2,0.5-0.4,1-1,0.9c-0.6-0.1-0.6-0.6-0.4-1c2.5-5.6,1.3-11.9,3.7-17.7c2-4.8,3.3-9.9,4-15.1c1-7,1.1-13.9-1.5-20.7
			c-1.7-4.5-5.1-7.3-8.9-9.8c-3-1.9-5.9-4-8.5-6.5c-2.1-2-2.4-4.2-0.9-6.1c1.5-1.9,3.7-2.1,6.1-0.5c4.1,2.8,8.3,5.3,12.2,8.3
			c7,5.3,10,12.6,10.9,21.1C61.5,67.6,61.9,69.9,61.6,72.2z"/>
		<path class="st0" d="M71.8,14.5c0-2.3,0.8-3.5,2.6-4.2c1.8-0.6,3.2-0.1,4.4,1.3c2.1,2.4,3.5,5.2,4.7,8.1
			c5.9,14.6,10.8,29.5,13.6,45c0.6,3.6,0.1,7.4,1.3,11c0.4,1.1-0.4,2-1.5,2.2c-1.3,0.3-2-0.4-2.4-1.6C91.7,68,88.3,60,85.7,51.7
			c-3.9-12.1-7.8-24.3-13.5-35.8C71.9,15.4,71.9,14.7,71.8,14.5z"/>
		<path class="st0" d="M80,77c-1.8-0.1-3.2-0.8-4.2-2.3c-5.4-8-9.8-16.6-12.2-26c-0.8-3.2-0.9-6.7-0.8-10c0-0.5-0.2-1.1,0.3-1.4
			c0.7-0.3,1,0.4,1.3,0.8c4.6,5.3,8.4,11.2,11.7,17.3c2.5,4.6,5,9.3,8.1,13.6c1.2,1.6,1.2,3.5,0.2,5.3C83.5,76,82,77,80,77z"/>
		<path class="st0" d="M39.5,78.9c0.1,2.3-0.6,4.7,0.1,7c0.3,0.8-0.2,1.6-1.1,1.8c-1,0.2-1.6-0.1-2.1-1c-2.8-5.5-5-11.2-6.5-17.2
			c-1.2-5-2.8-9.9-4.6-14.7c-1-2.7-0.2-5,2-5.9c2.3-0.9,4.5,0.2,5.5,2.9C36.2,60.6,38.9,69.5,39.5,78.9z"/>
		<path class="st0" d="M57,19.7C61.8,20,67.3,25.1,67.8,30c0.1,1.5,1.3,2.1,2.2,3c0.4,0.4,1.2,0.9,0.5,1.5c-0.5,0.5-1.1-0.1-1.4-0.5
			c-1.3-1.7-3-2.2-5.1-2c-1,0.1-1.9-0.3-2.8-0.8c-2.1-1.2-4-2.6-6.3-3.6c-2-0.8-2.8-3.1-2.2-5C53.3,20.8,55,19.6,57,19.7z"/>
		<path class="st0" d="M94.9,89.8c0.6-3.3,1.3-6.8,3.1-9.9c1.1-1.9,3.3-2.5,5.2-1.7c2,0.8,3,2.7,2.5,4.9c-0.9,3.6-2.9,6.6-5.4,9.3
			c-1,1.1-2.4,2.2-3.9,1.6C94.8,93.3,95.1,91.5,94.9,89.8z"/>
	</g>
	<g>
		<path class="st1" d="M59.5,74.2C58.8,86.1,54.9,97,49,107.2c-0.2,0.3-0.4,0.6-0.7,0.8c-2.2,1.7-3.8,3.8-4.8,6.4
			c-0.2,0.5-0.4,1-1,0.9c-0.6-0.1-0.6-0.6-0.4-1c2.5-5.6,1.3-11.9,3.7-17.7c2-4.8,3.3-9.9,4-15.1c1-7,1.1-13.9-1.5-20.7
			c-1.7-4.5-5.1-7.3-8.9-9.8c-3-1.9-5.9-4-8.5-6.5c-2.1-2-2.4-4.2-0.9-6.1c1.5-1.9,3.7-2.1,6.1-0.5c4.1,2.8,8.3,5.3,12.2,8.3
			c7,5.3,10,12.6,10.9,21.1C59.4,69.7,59.8,71.9,59.5,74.2z"/>
		<path class="st1" d="M69.7,16.6c0-2.3,0.8-3.5,2.6-4.2c1.8-0.6,3.2-0.1,4.4,1.3c2.1,2.4,3.5,5.2,4.7,8.1
			c5.9,14.6,10.8,29.5,13.6,45c0.6,3.6,0.1,7.4,1.3,11c0.4,1.1-0.4,2-1.5,2.2c-1.3,0.3-2-0.4-2.4-1.6c-2.7-8.2-6.1-16.2-8.7-24.5
			C79.7,41.7,75.8,29.5,70.1,18C69.8,17.5,69.8,16.8,69.7,16.6z"/>
		<path class="st1" d="M77.9,79.1c-1.8-0.1-3.2-0.8-4.2-2.3c-5.4-8-9.8-16.6-12.2-26c-0.8-3.2-0.9-6.7-0.8-10c0-0.5-0.2-1.1,0.3-1.4
			c0.7-0.3,1,0.4,1.3,0.8c4.6,5.3,8.4,11.2,11.7,17.3c2.5,4.6,5,9.3,8.1,13.6c1.2,1.6,1.2,3.5,0.2,5.3
			C81.4,78.1,79.9,79.1,77.9,79.1z"/>
		<path class="st1" d="M37.4,81c0.1,2.3-0.6,4.7,0.1,7c0.3,0.8-0.2,1.6-1.1,1.8c-1,0.2-1.6-0.1-2.1-1c-2.8-5.5-5-11.2-6.5-17.2
			c-1.2-5-2.8-9.9-4.6-14.7c-1-2.7-0.2-5,2-5.9c2.3-0.9,4.5,0.2,5.5,2.9C34.1,62.6,36.9,71.6,37.4,81z"/>
		<path class="st1" d="M54.9,21.8c4.9,0.2,10.3,5.4,10.8,10.3c0.1,1.5,1.3,2.1,2.2,3c0.4,0.4,1.2,0.9,0.5,1.5
			c-0.5,0.5-1.1-0.1-1.4-0.5c-1.3-1.7-3-2.2-5.1-2c-1,0.1-1.9-0.3-2.8-0.8c-2.1-1.2-4-2.6-6.3-3.6c-2-0.8-2.8-3.1-2.2-5
			C51.2,22.9,52.9,21.7,54.9,21.8z"/>
		<path class="st1" d="M92.8,91.9c0.6-3.3,1.3-6.8,3.1-9.9c1.1-1.9,3.3-2.5,5.2-1.7c2,0.8,3,2.7,2.5,4.9c-0.9,3.6-2.9,6.6-5.4,9.3
			c-1,1.1-2.4,2.2-3.9,1.6C92.7,95.4,93,93.6,92.8,91.9z"/>
	</g>
	<g>
		<path class="st2" d="M57.5,76.3c-0.8,11.9-4.7,22.7-10.6,32.9c-0.2,0.3-0.4,0.6-0.7,0.8c-2.2,1.7-3.8,3.8-4.8,6.4
			c-0.2,0.5-0.4,1-1,0.9c-0.6-0.1-0.6-0.6-0.4-1c2.5-5.6,1.3-11.9,3.7-17.7c2-4.8,3.3-9.9,4-15.1c1-7,1.1-13.9-1.5-20.7
			c-1.7-4.5-5.1-7.3-8.9-9.8c-3-1.9-5.9-4-8.5-6.5c-2.1-2-2.4-4.2-0.9-6.1c1.5-1.9,3.7-2.1,6.1-0.5c4.1,2.8,8.3,5.3,12.2,8.3
			c7,5.3,10,12.6,10.9,21.1C57.3,71.7,57.7,74,57.5,76.3z"/>
		<path class="st2" d="M67.6,18.6c0-2.3,0.8-3.5,2.6-4.2c1.8-0.6,3.2-0.1,4.4,1.3c2.1,2.4,3.5,5.2,4.7,8.1
			c5.9,14.6,10.8,29.5,13.6,45c0.6,3.6,0.1,7.4,1.3,11c0.4,1.1-0.4,2-1.5,2.2c-1.3,0.3-2-0.4-2.4-1.6c-2.7-8.2-6.1-16.2-8.7-24.5
			C77.6,43.8,73.7,31.6,68,20.1C67.7,19.5,67.7,18.9,67.6,18.6z"/>
		<path class="st2" d="M75.9,81.2c-1.8-0.1-3.2-0.8-4.2-2.3c-5.4-8-9.8-16.6-12.2-26c-0.8-3.2-0.9-6.7-0.8-10c0-0.5-0.2-1.1,0.3-1.4
			c0.7-0.3,1,0.4,1.3,0.8c4.6,5.3,8.4,11.2,11.7,17.3c2.5,4.6,5,9.3,8.1,13.6c1.2,1.6,1.2,3.5,0.2,5.3
			C79.4,80.2,77.9,81.2,75.9,81.2z"/>
		<path class="st2" d="M35.3,83.1c0.1,2.3-0.6,4.7,0.1,7c0.3,0.8-0.2,1.6-1.1,1.8c-1,0.2-1.6-0.1-2.1-1c-2.8-5.5-5-11.2-6.5-17.2
			c-1.2-5-2.8-9.9-4.6-14.7c-1-2.7-0.2-5,2-5.9c2.3-0.9,4.5,0.2,5.5,2.9C32,64.7,34.8,73.6,35.3,83.1z"/>
		<path class="st2" d="M52.8,23.9c4.9,0.2,10.3,5.4,10.8,10.3c0.1,1.5,1.3,2.1,2.2,3c0.4,0.4,1.2,0.9,0.5,1.5
			c-0.5,0.5-1.1-0.1-1.4-0.5c-1.3-1.7-3-2.2-5.1-2c-1,0.1-1.9-0.3-2.8-0.8c-2.1-1.2-4-2.6-6.3-3.6c-2-0.8-2.8-3.1-2.2-5
			C49.1,25,50.9,23.8,52.8,23.9z"/>
		<path class="st2" d="M90.7,94c0.6-3.3,1.3-6.8,3.1-9.9c1.1-1.9,3.3-2.5,5.2-1.7c2,0.8,3,2.7,2.5,4.9c-0.9,3.6-2.9,6.6-5.4,9.3
			c-1,1.1-2.4,2.2-3.9,1.6C90.6,97.5,90.9,95.7,90.7,94z"/>
	</g>
</g>
</svg>
